<mxfile host="65bd71144e">
    <diagram id="eEBw4gRtr2ro-RiO-oLE" name="Page-1">
        <mxGraphModel dx="793" dy="680" grid="1" gridSize="10" guides="1" tooltips="1" connect="1" arrows="1" fold="1" page="1" pageScale="1" pageWidth="850" pageHeight="1100" math="0" shadow="0">
            <root>
                <mxCell id="0"/>
                <mxCell id="1" parent="0"/>
                <mxCell id="19" value="" style="rounded=0;whiteSpace=wrap;html=1;strokeWidth=0;strokeColor=none;" parent="1" vertex="1">
                    <mxGeometry x="110" y="190" width="700" height="430" as="geometry"/>
                </mxCell>
                <mxCell id="3" value="&lt;b&gt;Lokale Entwicklungsumgebung: Ubuntu 24.04,&amp;nbsp;&lt;br&gt;Intel i7, 16GB memory (Hardware Node)&lt;/b&gt;" style="verticalAlign=top;align=left;shape=cube;size=10;direction=south;fontStyle=0;html=1;boundedLbl=1;spacingLeft=5;" parent="1" vertex="1">
                    <mxGeometry x="130" y="210" width="330" height="390" as="geometry"/>
                </mxCell>
                <mxCell id="4" value="tool (Software Komponent)" style="shape=folder;fontStyle=1;tabWidth=190;tabHeight=30;tabPosition=left;html=1;boundedLbl=1;labelInHeader=1;container=1;collapsible=0;fillColor=#f5f5f5;fontColor=#333333;strokeColor=#666666;" parent="1" vertex="1">
                    <mxGeometry x="150" y="270" width="270" height="140" as="geometry"/>
                </mxCell>
                <mxCell id="5" value="&lt;ul&gt;&lt;li&gt;Umgebung: node 20.17&lt;/li&gt;&lt;li&gt;Zweck: lint data&lt;i&gt;&lt;br&gt;&lt;/i&gt;&lt;/li&gt;&lt;li&gt;Liest von:&amp;nbsp;&lt;i&gt;data/openapi-directory&lt;/i&gt;&lt;/li&gt;&lt;li&gt;Schreibt nach:&amp;nbsp;&lt;i&gt;data/linter-results&lt;/i&gt;&lt;/li&gt;&lt;/ul&gt;" style="html=1;strokeColor=none;resizeWidth=1;resizeHeight=1;fillColor=none;part=1;connectable=0;allowArrows=0;deletable=0;align=left;" parent="4" vertex="1">
                    <mxGeometry width="270" height="98" relative="1" as="geometry">
                        <mxPoint y="30" as="offset"/>
                    </mxGeometry>
                </mxCell>
                <mxCell id="8" value="analysis (Software Komponent)" style="shape=folder;fontStyle=1;tabWidth=200;tabHeight=30;tabPosition=left;html=1;boundedLbl=1;labelInHeader=1;container=1;collapsible=0;fillColor=#f5f5f5;fontColor=#333333;strokeColor=#666666;" parent="1" vertex="1">
                    <mxGeometry x="150" y="430" width="270" height="140" as="geometry"/>
                </mxCell>
                <mxCell id="9" value="&lt;ul&gt;&lt;li&gt;Umgebung: python 3.12&lt;/li&gt;&lt;li&gt;Zweck: analyze data&lt;/li&gt;&lt;li&gt;Liest von: &lt;i&gt;data/linter-results&lt;/i&gt;&lt;/li&gt;&lt;li&gt;Schreibt nach: &lt;i&gt;tex/thesis/img&lt;/i&gt;&lt;/li&gt;&lt;/ul&gt;" style="html=1;strokeColor=none;resizeWidth=1;resizeHeight=1;fillColor=none;part=1;connectable=0;allowArrows=0;deletable=0;align=left;" parent="8" vertex="1">
                    <mxGeometry width="270.00000000000006" height="98" relative="1" as="geometry">
                        <mxPoint y="30" as="offset"/>
                    </mxGeometry>
                </mxCell>
                <mxCell id="12" value="&lt;b&gt;Remote GitHub Repository:&amp;nbsp;&lt;br&gt;https://github.com/APIs-guru/openapi-directory&lt;/b&gt;" style="verticalAlign=top;align=left;shape=cube;size=10;direction=south;fontStyle=0;html=1;boundedLbl=1;spacingLeft=5;" parent="1" vertex="1">
                    <mxGeometry x="480" y="210" width="310" height="220" as="geometry"/>
                </mxCell>
                <mxCell id="13" value="APIs" style="shape=folder;fontStyle=1;tabWidth=190;tabHeight=30;tabPosition=left;html=1;boundedLbl=1;labelInHeader=1;container=1;collapsible=0;fillColor=#f5f5f5;fontColor=#333333;strokeColor=#666666;" parent="1" vertex="1">
                    <mxGeometry x="510" y="275" width="240" height="130" as="geometry"/>
                </mxCell>
                <mxCell id="14" value="&lt;ul&gt;&lt;li&gt;&lt;span style=&quot;background-color: initial;&quot;&gt;zweck: speichert OpenAPI Daten&lt;/span&gt;&lt;/li&gt;&lt;/ul&gt;" style="html=1;strokeColor=none;resizeWidth=1;resizeHeight=1;fillColor=none;part=1;connectable=0;allowArrows=0;deletable=0;align=left;" parent="13" vertex="1">
                    <mxGeometry width="240" height="91" relative="1" as="geometry">
                        <mxPoint y="30" as="offset"/>
                    </mxGeometry>
                </mxCell>
                <mxCell id="20" value="" style="endArrow=classic;html=1;exitX=0;exitY=0;exitDx=270;exitDy=85;exitPerimeter=0;entryX=0;entryY=0;entryDx=0;entryDy=80;entryPerimeter=0;dashed=1;" parent="1" source="4" target="13" edge="1">
                    <mxGeometry width="50" height="50" relative="1" as="geometry">
                        <mxPoint x="520" y="400" as="sourcePoint"/>
                        <mxPoint x="570" y="350" as="targetPoint"/>
                    </mxGeometry>
                </mxCell>
            </root>
        </mxGraphModel>
    </diagram>
</mxfile>